<?xml version="1.0" encoding="UTF-8"?>
<svg xmlns="http://www.w3.org/2000/svg" width="30" height="30" viewBox="0 0 30 30" fill="none">
  <path d="M0 7.5C0 5.42893 1.67893 3.75 3.75 3.75H26.25C28.3211 3.75 30 5.42893 30 7.5V22.5C30 24.5711 28.3211 26.25 26.25 26.25H3.75C1.67893 26.25 0 24.5711 0 22.5V7.5ZM3.75 5.625C2.71447 5.625 1.875 6.46447 1.875 7.5V7.9067L15 15.7817L28.125 7.9067V7.5C28.125 6.46447 27.2855 5.625 26.25 5.625H3.75ZM28.125 10.0933L19.2041 15.4459L28.125 20.8379V10.0933ZM28.0604 22.9897L17.3851 16.5373L15 17.9683L12.6149 16.5373L1.9396 22.9897C2.15496 23.7878 2.8839 24.375 3.75 24.375H26.25C27.1161 24.375 27.845 23.7878 28.0604 22.9897ZM1.875 20.8379L10.7959 15.4459L1.875 10.0933V20.8379Z" fill="#808183"></path>
</svg>
