<?xml version="1.0" encoding="UTF-8"?>
<svg xmlns="http://www.w3.org/2000/svg" width="30" height="30" viewBox="0 0 30 30" fill="none">
  <path d="M15 28.125C7.75126 28.125 1.875 22.2487 1.875 15C1.875 7.75126 7.75126 1.875 15 1.875C22.2487 1.875 28.125 7.75126 28.125 15C28.125 22.2487 22.2487 28.125 15 28.125ZM15 30C23.2843 30 30 23.2843 30 15C30 6.71573 23.2843 0 15 0C6.71573 0 0 6.71573 0 15C0 23.2843 6.71573 30 15 30Z" fill="#808183"></path>
  <path d="M16.7451 12.3523L12.4494 12.8906L12.2956 13.6047L13.1416 13.7585C13.6909 13.8904 13.8007 14.0881 13.6799 14.6375L12.2956 21.1414C11.9331 22.8223 12.4934 23.6133 13.8117 23.6133C14.8334 23.6133 16.02 23.1409 16.5583 22.4927L16.7231 21.7126C16.3496 22.0422 15.8002 22.1741 15.4377 22.1741C14.9213 22.1741 14.7346 21.8115 14.8664 21.1743L16.7451 12.3523Z" fill="#808183"></path>
  <path d="M16.875 8.4375C16.875 9.47303 16.0355 10.3125 15 10.3125C13.9645 10.3125 13.125 9.47303 13.125 8.4375C13.125 7.40197 13.9645 6.5625 15 6.5625C16.0355 6.5625 16.875 7.40197 16.875 8.4375Z" fill="#808183"></path>
</svg>
