<?xml version="1.0" encoding="UTF-8"?>
<svg xmlns="http://www.w3.org/2000/svg" width="28" height="28" viewBox="0 0 28 28" fill="none">
  <path fill-rule="evenodd" clip-rule="evenodd" d="M14.6464 11.6464C14.8417 11.4512 15.1583 11.4512 15.3536 11.6464L17.3536 13.6464C17.5488 13.8417 17.5488 14.1583 17.3536 14.3536L15.3536 16.3536C15.1583 16.5488 14.8417 16.5488 14.6464 16.3536C14.4512 16.1583 14.4512 15.8417 14.6464 15.6464L16.2929 14L14.6464 12.3536C14.4512 12.1583 14.4512 11.8417 14.6464 11.6464Z" fill="#808183"></path>
  <path fill-rule="evenodd" clip-rule="evenodd" d="M13.3536 11.6464C13.1583 11.4512 12.8417 11.4512 12.6464 11.6464L10.6464 13.6464C10.4512 13.8417 10.4512 14.1583 10.6464 14.3536L12.6464 16.3536C12.8417 16.5488 13.1583 16.5488 13.3536 16.3536C13.5488 16.1583 13.5488 15.8417 13.3536 15.6464L11.7071 14L13.3536 12.3536C13.5488 12.1583 13.5488 11.8417 13.3536 11.6464Z" fill="#808183"></path>
  <path d="M5.25 0H22.75C24.683 0 26.25 1.567 26.25 3.5V24.5C26.25 26.433 24.683 28 22.75 28H5.25C3.317 28 1.75 26.433 1.75 24.5V22.75H3.5V24.5C3.5 25.4665 4.2835 26.25 5.25 26.25H22.75C23.7165 26.25 24.5 25.4665 24.5 24.5V3.5C24.5 2.5335 23.7165 1.75 22.75 1.75H5.25C4.2835 1.75 3.5 2.5335 3.5 3.5V5.25H1.75V3.5C1.75 1.567 3.317 0 5.25 0Z" fill="#808183"></path>
  <path d="M1.75 8.75V7.875C1.75 7.39175 2.14175 7 2.625 7C3.10825 7 3.5 7.39175 3.5 7.875V8.75H4.375C4.85825 8.75 5.25 9.14175 5.25 9.625C5.25 10.1082 4.85825 10.5 4.375 10.5H0.875C0.391751 10.5 0 10.1082 0 9.625C0 9.14175 0.391751 8.75 0.875 8.75H1.75Z" fill="#808183"></path>
  <path d="M1.75 14V13.125C1.75 12.6418 2.14175 12.25 2.625 12.25C3.10825 12.25 3.5 12.6418 3.5 13.125V14H4.375C4.85825 14 5.25 14.3918 5.25 14.875C5.25 15.3582 4.85825 15.75 4.375 15.75H0.875C0.391751 15.75 0 15.3582 0 14.875C0 14.3918 0.391751 14 0.875 14H1.75Z" fill="#808183"></path>
  <path d="M1.75 19.25V18.375C1.75 17.8918 2.14175 17.5 2.625 17.5C3.10825 17.5 3.5 17.8918 3.5 18.375V19.25H4.375C4.85825 19.25 5.25 19.6418 5.25 20.125C5.25 20.6082 4.85825 21 4.375 21H0.875C0.391751 21 0 20.6082 0 20.125C0 19.6418 0.391751 19.25 0.875 19.25H1.75Z" fill="#808183"></path>
</svg>
