<?xml version="1.0" encoding="UTF-8"?>
<svg xmlns="http://www.w3.org/2000/svg" width="30" height="27" viewBox="0 0 30 27" fill="none">
  <path d="M24.375 10.6641C24.375 10.211 23.9553 9.84375 23.4375 9.84375H14.0625C13.5447 9.84375 13.125 10.211 13.125 10.6641C13.125 11.1171 13.5447 11.4844 14.0625 11.4844H23.4375C23.9553 11.4844 24.375 11.1171 24.375 10.6641Z" fill="#808183"></path>
  <path d="M24.375 15.5859C24.375 15.1329 23.9553 14.7656 23.4375 14.7656H14.0625C13.5447 14.7656 13.125 15.1329 13.125 15.5859C13.125 16.039 13.5447 16.4062 14.0625 16.4062H23.4375C23.9553 16.4062 24.375 16.039 24.375 15.5859Z" fill="#808183"></path>
  <path d="M23.4375 19.6875C23.9553 19.6875 24.375 20.0548 24.375 20.5078C24.375 20.9609 23.9553 21.3281 23.4375 21.3281H14.0625C13.5447 21.3281 13.125 20.9609 13.125 20.5078C13.125 20.0548 13.5447 19.6875 14.0625 19.6875H23.4375Z" fill="#808183"></path>
  <path d="M26.25 0C28.3211 0 30 1.46907 30 3.28125V22.9688C30 24.7809 28.3211 26.25 26.25 26.25H3.75C1.67893 26.25 0 24.7809 0 22.9688V3.28125C0 1.46907 1.67893 0 3.75 0H26.25ZM3.75 1.64062C2.71447 1.64062 1.875 2.37516 1.875 3.28125V4.92188H28.125V3.28125C28.125 2.37516 27.2855 1.64062 26.25 1.64062H3.75ZM1.875 6.5625V22.9688C1.875 23.8748 2.71447 24.6094 3.75 24.6094H7.5V6.5625H1.875ZM9.375 6.5625V24.6094H26.25C27.2855 24.6094 28.125 23.8748 28.125 22.9688V6.5625H9.375Z" fill="#808183"></path>
</svg>
