<?xml version="1.0" encoding="UTF-8"?>
<svg xmlns="http://www.w3.org/2000/svg" width="32" height="27" viewBox="0 0 32 27" fill="none">
  <path d="M25.7836 13.9275C25.6916 13.8415 25.6474 13.7194 25.6642 13.5977L26.1336 10.1946L21.5697 14.8236C21.4437 14.9514 21.2434 14.9837 21.08 14.902C20.9169 14.8204 20.8308 14.6452 20.8698 14.4736L23.1755 4.31691L20.1784 6.49668C20.0762 6.57105 19.9433 6.59543 19.8193 6.56254C19.6954 6.52957 19.5949 6.44324 19.5477 6.32926L16.9977 0.155273L14.4163 6.33074C14.3687 6.44465 14.2678 6.53066 14.1437 6.56301C14.0195 6.59551 13.8868 6.57051 13.7848 6.49574L10.822 4.32121L13.0951 14.4748C13.1335 14.6463 13.0472 14.8211 12.8841 14.9024C12.7209 14.9837 12.521 14.9514 12.395 14.8237L7.84193 10.2058L8.33542 13.595C8.35323 13.7171 8.3095 13.84 8.21746 13.9266C8.12543 14.0132 7.9959 14.0536 7.86793 14.035L0.955566 13.0402L5.286 18.2467C5.36589 18.3427 5.39378 18.4689 5.36146 18.5874C5.32914 18.706 5.24022 18.8032 5.12136 18.8501L1.78129 20.1671L10.6347 22.1424C10.7885 22.1767 10.908 22.2922 10.9418 22.4392C10.9756 22.5863 10.9177 22.7388 10.793 22.8312C10.3202 23.1815 9.8466 23.5477 9.38862 23.9015C9.12875 24.1023 8.86387 24.3075 8.59637 24.5114C10.7848 25.0901 13.0013 25.443 15.1966 25.5597C15.3105 25.5657 15.4164 25.6186 15.4893 25.702C15.5621 25.7856 15.5952 25.9131 15.5805 26.0207L17 25.7429L18.3228 26.0571C18.3089 25.9493 18.3427 25.8259 18.4162 25.7429C18.4897 25.6599 18.596 25.606 18.7098 25.6007C21.0833 25.4898 23.4615 25.1368 25.7916 24.554L23.2239 22.8439C23.0914 22.7556 23.0256 22.6009 23.0561 22.4496C23.0865 22.2982 23.2076 22.1779 23.365 22.1427L32.185 20.1679L28.8433 18.8501C28.7243 18.8031 28.6353 18.7055 28.603 18.5867C28.5708 18.4679 28.5992 18.3414 28.6797 18.2455L33.0393 13.0409L26.1322 14.035C26.0047 14.0532 25.8756 14.0134 25.7836 13.9275Z" fill="#808183"></path>
</svg>
